<?xml version="1.0" standalone="no"?>
<!DOCTYPE svg PUBLIC "-//W3C//DTD SVG 20010904//EN"
 "http://www.w3.org/TR/2001/REC-SVG-20010904/DTD/svg10.dtd">
<svg version="1.0" xmlns="http://www.w3.org/2000/svg"
 width="822.000000pt" height="822.000000pt" viewBox="0 0 822.000000 822.000000"
 preserveAspectRatio="xMidYMid meet">
<metadata>
Created by potrace 1.14, written by Peter Selinger 2001-2017
</metadata>
<g transform="translate(0.000000,822.000000) scale(0.100000,-0.100000)"
fill="#000000" stroke="none">
<path d="M6182 8201 c-17 -15 -92 -109 -365 -461 -70 -91 -135 -174 -144 -185
-53 -64 -305 -400 -340 -455 -79 -123 -155 -307 -178 -435 -6 -35 -13 -102
-20 -198 -13 -170 -52 -313 -109 -397 -24 -36 -106 -155 -181 -265 -75 -110
-151 -221 -168 -247 -27 -40 -36 -47 -57 -43 -14 2 -41 7 -60 10 -19 3 -35 7
-35 8 0 1 -100 302 -222 669 l-222 668 34 50 c97 145 105 322 20 465 -96 160
-283 239 -470 199 -51 -11 -133 -54 -179 -95 -126 -111 -178 -297 -125 -452
16 -47 16 -54 2 -76 -12 -19 -180 -235 -267 -343 -11 -15 -43 -56 -71 -92 -58
-76 -118 -111 -225 -132 -8 -2 -76 -5 -150 -8 -230 -8 -348 -43 -511 -152
-219 -147 -451 -469 -574 -799 -92 -246 -135 -432 -135 -583 -1 -211 50 -326
167 -382 99 -48 305 -27 502 50 283 110 524 266 733 473 198 196 298 353 354
553 24 88 27 277 5 395 -18 96 -19 207 -2 251 7 19 184 249 389 507 15 18 31
40 35 48 6 10 18 12 39 8 53 -12 62 -13 95 -14 l31 -1 222 -665 222 -666 -33
-36 c-18 -21 -46 -67 -63 -103 -27 -59 -30 -75 -30 -171 -1 -101 0 -108 36
-180 80 -161 224 -250 399 -244 88 3 131 15 210 61 168 99 244 312 178 506
l-19 59 137 202 c76 111 149 218 163 239 160 236 169 245 284 326 33 24 114
70 178 102 148 75 181 96 267 170 70 60 169 183 219 272 15 26 88 154 163 285
75 131 172 301 215 378 42 77 86 156 97 175 119 210 187 339 187 357 0 24 -34
53 -61 53 -23 0 -37 -18 -223 -300 -88 -135 -238 -363 -333 -507 -98 -148
-180 -262 -190 -265 -33 -9 -60 9 -65 40 -4 25 15 58 108 198 544 821 568 858
566 893 -1 18 -4 36 -7 40 -9 16 -66 -3 -86 -28 -12 -14 -107 -156 -211 -316
-354 -539 -447 -680 -458 -692 -20 -24 -62 -28 -77 -8 -23 33 -14 63 46 153
32 48 128 193 213 322 85 129 212 321 281 427 121 183 127 194 121 231 l-6 39
-39 -10 c-22 -5 -44 -18 -50 -28 -5 -11 -114 -178 -242 -371 -129 -194 -273
-414 -322 -488 -127 -195 -138 -205 -185 -155 -19 20 -21 29 -13 48 6 12 104
164 218 337 114 173 261 396 326 495 65 99 123 186 129 192 18 21 24 71 9 86
-23 23 -57 26 -77 8z"/>
<path d="M3299 3196 c-2 -2 -26 -7 -54 -10 -72 -9 -127 -17 -150 -21 -11 -2
-24 -4 -30 -4 -14 -1 -14 -1280 0 -1282 5 -1 65 -2 132 -3 103 -1 123 1 124
14 0 8 1 302 1 653 1 584 -2 673 -23 653z"/>
<path d="M3565 3164 c-43 -14 -84 -57 -86 -89 0 -11 -2 -28 -4 -39 -4 -22 13
-65 36 -88 43 -43 149 -54 211 -22 90 47 87 186 -5 236 -30 15 -109 17 -152 2z"/>
<path d="M1582 3142 c-259 -52 -420 -292 -425 -632 -2 -132 3 -180 27 -270 38
-136 139 -271 245 -325 171 -86 377 -73 530 33 76 53 79 60 51 118 -12 27 -31
68 -41 92 -20 45 -29 51 -50 26 -28 -34 -113 -67 -184 -72 -58 -4 -78 0 -118
18 -105 50 -160 178 -158 374 2 135 25 228 76 298 81 111 252 124 373 29 l49
-39 47 104 c53 116 55 104 -27 167 -100 75 -258 107 -395 79z"/>
<path d="M4498 2815 c-2 -2 -23 -5 -48 -8 -78 -8 -128 -32 -207 -95 l-43 -33
-1 28 c-3 85 -5 98 -14 97 -5 -1 -35 -5 -65 -9 -128 -16 -180 -25 -181 -33 -1
-10 -1 -831 0 -862 l1 -25 126 0 c111 0 128 2 133 17 3 10 6 149 5 310 -1 324
-6 299 67 338 43 23 104 31 139 18 53 -18 55 -30 57 -333 1 -154 2 -296 3
-315 l0 -35 136 0 135 0 -3 385 c-3 416 -5 428 -61 488 -20 22 -97 68 -97 59
0 -3 -18 -1 -40 3 -22 4 -41 6 -42 5z"/>
<path d="M5255 2813 c-90 -6 -195 -27 -272 -55 -46 -16 -85 -33 -88 -38 -2 -4
9 -48 26 -98 l30 -90 62 19 c79 25 127 32 202 32 97 -1 139 -28 147 -98 l3
-29 -115 1 c-235 4 -353 -59 -387 -207 -20 -87 -8 -216 25 -269 54 -87 108
-115 222 -114 92 0 132 13 208 65 24 16 45 28 48 26 2 -3 10 -22 17 -44 l14
-39 104 0 c57 -1 109 0 116 3 14 5 16 615 1 706 -21 135 -103 210 -241 222
-34 3 -66 6 -72 7 -5 1 -28 1 -50 0z m100 -541 c13 -9 13 -132 1 -151 -14 -21
-88 -51 -128 -51 -86 0 -125 51 -109 141 3 16 39 47 66 57 34 12 155 15 170 4z"/>
<path d="M6243 2809 c-58 -11 -98 -33 -147 -84 l-42 -44 1 60 c1 33 -2 62 -6
64 -3 3 -33 0 -65 -5 -32 -6 -86 -13 -119 -16 -33 -4 -63 -8 -67 -11 -5 -2 -8
-205 -8 -451 l0 -448 133 1 132 0 3 317 2 316 43 20 c40 19 119 24 192 11 12
-3 20 2 21 11 3 52 17 160 21 157 2 -2 21 -67 42 -143 76 -268 160 -569 170
-610 l11 -40 62 1 c99 2 99 2 77 -57 -39 -108 -74 -132 -186 -126 l-73 3 -11
-40 c-6 -22 -17 -61 -24 -87 l-13 -46 41 -17 c52 -22 183 -27 245 -10 157 41
227 136 292 392 34 139 200 851 200 861 0 4 -61 7 -135 7 -74 0 -135 -2 -135
-4 0 -3 -95 -478 -106 -526 -2 -11 -7 -33 -10 -50 -3 -16 -7 -37 -9 -45 -2 -8
-4 -23 -4 -33 -2 -30 -18 -10 -25 30 -4 21 -16 74 -26 118 -34 152 -61 270
-65 295 -8 43 -48 205 -52 210 -2 2 -61 5 -131 6 -70 1 -140 6 -157 11 -16 5
-49 6 -72 2z"/>
<path d="M2260 2799 c-73 -11 -152 -21 -168 -22 -19 -1 -12 -714 8 -770 35
-97 126 -151 247 -146 106 4 176 33 251 103 17 16 32 25 32 18 0 -14 0 -16 15
-67 l12 -40 109 0 109 0 0 465 0 465 -25 -1 c-31 -1 -167 -19 -217 -30 l-22
-4 0 -296 c0 -271 -2 -298 -18 -316 -36 -40 -75 -60 -127 -65 -46 -4 -56 -2
-82 20 l-29 25 -2 309 c-1 169 -2 320 -3 336 0 30 0 30 -90 16z"/>
<path d="M3717 2804 c-1 -1 -24 -5 -52 -8 -27 -3 -68 -8 -90 -12 -22 -3 -49
-7 -60 -8 -20 -1 -20 -8 -20 -451 l0 -450 128 0 c70 0 131 2 135 5 4 3 7 213
7 467 l0 462 -23 -2 c-13 -1 -24 -2 -25 -3z"/>
<path d="M1041 1680 c-4 -3 -7 -286 -7 -630 0 -344 -3 -643 -6 -665 -12 -82
-42 -127 -109 -160 -27 -14 -49 -29 -49 -33 0 -4 31 -40 68 -79 67 -72 68 -73
102 -63 58 17 138 60 170 92 77 77 105 141 110 258 2 57 3 1193 1 1260 l-1 25
-136 0 c-74 0 -139 -2 -143 -5z"/>
<path d="M1842 1359 c-196 -24 -321 -129 -373 -314 -23 -81 -18 -265 8 -350
56 -179 187 -280 372 -290 174 -8 301 55 390 193 76 119 94 326 42 480 -14 44
-40 98 -56 122 -59 85 -159 145 -259 156 -28 3 -53 7 -56 8 -3 1 -34 -1 -68
-5z m98 -212 c58 -29 90 -120 92 -258 2 -141 -26 -227 -87 -268 -66 -44 -157
-10 -190 71 -41 98 -28 329 22 404 36 56 108 79 163 51z"/>
<path d="M5348 1365 c-1 -1 -26 -5 -54 -9 -226 -27 -364 -205 -366 -473 -2
-239 107 -401 307 -459 72 -20 217 -23 295 -5 53 13 176 67 185 82 5 7 -36
123 -55 160 -9 16 -14 15 -72 -6 -42 -15 -89 -23 -141 -24 -121 -3 -190 27
-227 99 -38 74 -52 70 260 70 l281 0 -2 93 c-6 278 -114 438 -314 462 -33 4
-67 9 -77 11 -9 1 -18 1 -20 -1z m70 -222 c27 -17 50 -66 57 -122 l5 -39 -144
1 -144 0 8 29 c5 15 6 28 4 28 -3 0 7 22 22 49 41 76 122 99 192 54z"/>
<path d="M2669 1356 c-2 -2 -31 -7 -64 -11 -79 -8 -124 -15 -158 -21 l-28 -6
3 -366 3 -367 27 -55 c43 -86 102 -119 218 -122 100 -3 185 28 256 94 l41 38
13 -58 12 -59 112 1 111 1 0 465 c0 459 0 465 -20 463 -27 -3 -136 -17 -205
-26 -38 -6 -38 -11 -39 -308 l0 -292 -32 -33 c-49 -51 -137 -72 -187 -45 -36
19 -41 65 -41 366 0 160 0 302 0 318 -1 24 -10 34 -22 23z"/>
<path d="M3639 1356 c-2 -2 -47 -9 -99 -16 -52 -6 -104 -13 -115 -15 -11 -2
-23 -4 -27 -4 -5 -1 -8 -203 -8 -450 l0 -448 135 0 135 0 2 315 3 316 31 18
c38 22 106 29 170 17 26 -5 48 -8 50 -7 4 5 17 162 18 217 l1 54 -34 4 c-67 8
-130 -16 -188 -71 -56 -55 -56 -55 -55 21 1 38 -8 60 -19 49z"/>
<path d="M4200 1345 c-41 -7 -97 -16 -125 -19 -27 -4 -51 -9 -54 -11 -3 -3 -5
-772 -2 -866 l1 -26 118 -1 c64 -1 124 1 132 3 13 4 15 47 15 311 l0 306 42
31 c32 22 57 32 98 35 66 5 100 -13 113 -61 5 -17 9 -162 10 -322 1 -159 1
-293 2 -296 0 -3 61 -6 135 -7 l135 0 0 359 c-1 393 -7 444 -58 508 -63 77
-223 93 -344 33 -35 -17 -80 -47 -100 -66 l-38 -35 -1 37 c-1 20 -1 52 0 70 2
17 1 31 -1 31 -2 -1 -37 -7 -78 -14z"/>
<path d="M6873 1345 c-24 -7 -43 -11 -43 -9 0 4 -57 -27 -95 -52 -58 -38 -99
-137 -97 -233 2 -89 29 -140 97 -185 29 -20 56 -36 59 -36 4 0 25 -9 49 -19
23 -10 72 -29 109 -42 81 -27 113 -56 104 -93 -8 -34 -38 -48 -110 -52 -65 -3
-152 14 -222 46 l-44 19 -5 -22 c-2 -12 -11 -53 -20 -90 -8 -38 -15 -73 -15
-78 0 -13 97 -56 167 -74 176 -44 346 -13 446 83 120 115 117 324 -5 415 -47
35 -68 45 -202 93 -66 24 -124 48 -129 53 -15 15 1 57 25 68 24 11 151 10 201
-1 16 -4 50 -15 77 -25 l48 -18 21 79 c12 43 24 85 27 93 6 15 -49 47 -125 72
-63 20 -264 26 -318 8z"/>
<path d="M5779 1339 c-10 -6 -4 -34 79 -329 27 -96 73 -259 102 -361 l52 -187
69 1 c38 0 72 -2 75 -6 10 -10 -14 -84 -39 -123 -33 -50 -110 -73 -188 -55
l-37 8 -21 -77 c-11 -43 -21 -84 -21 -93 0 -24 57 -39 160 -43 146 -5 231 33
305 134 30 42 79 148 90 198 2 10 12 48 20 84 9 36 18 72 20 80 34 151 137
593 161 693 9 37 14 70 11 74 -5 4 -187 8 -249 4 -17 -1 -22 -17 -53 -181 -8
-43 -14 -74 -20 -100 -3 -14 -7 -34 -9 -45 -2 -11 -11 -54 -19 -95 -9 -41 -18
-86 -20 -100 -17 -94 -30 -150 -36 -150 -3 0 -35 132 -70 293 -83 384 -82 377
-95 378 -56 4 -260 3 -267 -2z"/>
</g>
</svg>
